<?xml version="1.0" encoding="utf-8"?>
<!-- Generator: Adobe Illustrator 19.0.1, SVG Export Plug-In . SVG Version: 6.00 Build 0)  -->
<svg version="1.1" id="Layer_1" xmlns="http://www.w3.org/2000/svg" xmlns:xlink="http://www.w3.org/1999/xlink" x="0px" y="0px"
	 viewBox="-38 172.1 300 51.1" style="enable-background:new -38 172.1 300 51.1;" xml:space="preserve">
<style type="text/css">
	.st0{fill:#414042;}
	.st1{fill:#939598;}
	.st2{fill:#00AEEF;}
	.st3{fill:#008BB0;}
	.st4{fill:#009DDC;}
</style>
<g id="Layer_6_1_">
</g>
<g>
	<g>
		<g>
			<g>
				<path class="st0" d="M22.1,190.3l-1.6,1.6c-1.3-1.3-2.6-1.9-3.8-1.9c-0.8,0-1.5,0.3-2,0.8c-0.6,0.5-0.8,1.1-0.8,1.8
					c0,0.6,0.2,1.2,0.7,1.8c0.5,0.6,1.4,1.2,2.9,2c1.8,0.9,3.1,1.9,3.7,2.7c0.6,0.9,1,1.9,1,3c0,1.6-0.5,2.9-1.6,4
					c-1.1,1.1-2.5,1.6-4.1,1.6c-1.1,0-2.1-0.2-3.1-0.7c-1-0.5-1.8-1.1-2.5-2l1.5-1.7c1.2,1.4,2.6,2.1,4,2.1c1,0,1.8-0.3,2.5-0.9
					c0.7-0.6,1-1.4,1-2.2c0-0.7-0.2-1.3-0.7-1.9c-0.5-0.5-1.5-1.2-3.1-2c-1.7-0.9-2.9-1.8-3.5-2.6c-0.6-0.9-0.9-1.8-0.9-3
					c0-1.4,0.5-2.6,1.5-3.6c1-1,2.2-1.4,3.7-1.4C18.5,187.8,20.3,188.6,22.1,190.3z"/>
				<path class="st0" d="M44.2,200.9l2.1,1.1c-0.7,1.3-1.5,2.4-2.3,3.2c-0.9,0.8-1.9,1.4-3,1.9c-1.1,0.4-2.4,0.6-3.8,0.6
					c-3.1,0-5.5-1-7.3-3c-1.7-2-2.6-4.3-2.6-6.9c0-2.4,0.7-4.6,2.2-6.4c1.9-2.4,4.4-3.6,7.5-3.6c3.2,0,5.8,1.2,7.8,3.7
					c1.4,1.7,2.1,3.9,2.1,6.5H29.8c0,2.2,0.8,4,2.1,5.4c1.4,1.4,3,2.1,5.1,2.1c1,0,1.9-0.2,2.8-0.5c0.9-0.3,1.7-0.8,2.3-1.3
					C42.7,203.1,43.4,202.2,44.2,200.9z M44.2,195.8c-0.3-1.3-0.8-2.3-1.4-3.1c-0.6-0.8-1.4-1.4-2.5-1.9c-1-0.5-2.1-0.7-3.2-0.7
					c-1.9,0-3.5,0.6-4.8,1.8c-1,0.9-1.7,2.2-2.2,3.9H44.2z"/>
				<path class="st0" d="M52.3,188.2h2.5v2.8c0.7-1.1,1.5-1.9,2.4-2.5c0.8-0.5,1.7-0.8,2.6-0.8c0.7,0,1.4,0.2,2.2,0.6l-1.3,2.1
					c-0.5-0.2-0.9-0.3-1.3-0.3c-0.8,0-1.6,0.3-2.4,1c-0.8,0.7-1.3,1.7-1.7,3.1c-0.3,1.1-0.5,3.3-0.5,6.6v6.4h-2.5V188.2z"/>
				<path class="st0" d="M65.8,188.2h2.6l6.4,13.8l6.3-13.8h2.6l-8.7,19h-0.5L65.8,188.2z"/>
				<path class="st0" d="M103.4,200.9l2.1,1.1c-0.7,1.3-1.5,2.4-2.3,3.2c-0.9,0.8-1.9,1.4-3,1.9c-1.1,0.4-2.4,0.6-3.8,0.6
					c-3.1,0-5.5-1-7.3-3c-1.7-2-2.6-4.3-2.6-6.9c0-2.4,0.7-4.6,2.2-6.4c1.9-2.4,4.4-3.6,7.5-3.6c3.2,0,5.8,1.2,7.8,3.7
					c1.4,1.7,2.1,3.9,2.1,6.5H89c0,2.2,0.8,4,2.1,5.4c1.4,1.4,3,2.1,5.1,2.1c1,0,1.9-0.2,2.8-0.5c0.9-0.3,1.7-0.8,2.3-1.3
					C101.9,203.1,102.6,202.2,103.4,200.9z M103.4,195.8c-0.3-1.3-0.8-2.3-1.4-3.1c-0.6-0.8-1.4-1.4-2.5-1.9c-1-0.5-2.1-0.7-3.2-0.7
					c-1.9,0-3.5,0.6-4.8,1.8c-1,0.9-1.7,2.2-2.2,3.9H103.4z"/>
				<path class="st0" d="M111.5,188.2h2.5v2.8c0.7-1.1,1.5-1.9,2.4-2.5c0.8-0.5,1.7-0.8,2.6-0.8c0.7,0,1.4,0.2,2.2,0.6l-1.3,2.1
					c-0.5-0.2-0.9-0.3-1.3-0.3c-0.8,0-1.6,0.3-2.4,1c-0.8,0.7-1.3,1.7-1.7,3.1c-0.3,1.1-0.5,3.3-0.5,6.6v6.4h-2.5V188.2z"/>
				<path class="st1" d="M143.4,192.2l-1.9,1.2c-1.7-2.2-4-3.3-6.9-3.3c-2.3,0-4.2,0.7-5.8,2.2c-1.5,1.5-2.3,3.3-2.3,5.4
					c0,1.4,0.3,2.7,1.1,3.9c0.7,1.2,1.7,2.2,2.9,2.8c1.2,0.7,2.6,1,4.1,1c2.8,0,5.1-1.1,6.8-3.3l1.9,1.3c-0.9,1.4-2.1,2.4-3.7,3.2
					c-1.5,0.8-3.3,1.1-5.2,1.1c-3,0-5.5-1-7.5-2.9c-2-1.9-3-4.2-3-7c0-1.8,0.5-3.5,1.4-5.1c0.9-1.6,2.2-2.8,3.8-3.7
					c1.6-0.9,3.4-1.3,5.4-1.3c1.3,0,2.5,0.2,3.6,0.6c1.2,0.4,2.2,0.9,3,1.5C142.1,190.4,142.8,191.2,143.4,192.2z"/>
				<path class="st1" d="M165.9,200.9l2.1,1.1c-0.7,1.3-1.5,2.4-2.3,3.2c-0.9,0.8-1.9,1.4-3,1.9c-1.1,0.4-2.4,0.6-3.8,0.6
					c-3.1,0-5.5-1-7.3-3c-1.7-2-2.6-4.3-2.6-6.9c0-2.4,0.7-4.6,2.2-6.4c1.9-2.4,4.4-3.6,7.5-3.6c3.2,0,5.8,1.2,7.8,3.7
					c1.4,1.7,2.1,3.9,2.1,6.5h-17.1c0.1,2.2,0.8,4,2.1,5.4c1.4,1.4,3,2.1,5.1,2.1c1,0,1.9-0.2,2.8-0.5c0.9-0.3,1.7-0.8,2.3-1.3
					C164.4,203.1,165.1,202.2,165.9,200.9z M165.9,195.8c-0.3-1.3-0.8-2.3-1.4-3.1c-0.6-0.8-1.4-1.4-2.5-1.9c-1-0.5-2.1-0.7-3.2-0.7
					c-1.9,0-3.5,0.6-4.8,1.8c-1,0.9-1.7,2.2-2.2,3.9H165.9z"/>
				<path class="st1" d="M174.9,188.2h2.4v3.4c1-1.3,2.1-2.3,3.2-2.9c1.2-0.6,2.5-1,3.9-1c1.4,0,2.7,0.4,3.8,1.1
					c1.1,0.7,1.9,1.7,2.4,2.9c0.5,1.2,0.8,3.1,0.8,5.7v9.8H189v-9.1c0-2.2-0.1-3.7-0.3-4.4c-0.3-1.3-0.8-2.2-1.6-2.8
					c-0.8-0.6-1.8-1-3.1-1c-1.5,0-2.8,0.5-4,1.5c-1.2,1-1.9,2.2-2.3,3.6c-0.2,0.9-0.3,2.7-0.3,5.2v7h-2.4V188.2z"/>
				<path class="st1" d="M200.6,181.2h2.4v7.1h3.9v2.1h-3.9v16.9h-2.4v-16.9h-3.3v-2.1h3.3V181.2z"/>
				<path class="st1" d="M211.5,188.2h2.5v2.8c0.7-1.1,1.5-1.9,2.4-2.5c0.8-0.5,1.7-0.8,2.6-0.8c0.7,0,1.4,0.2,2.2,0.6l-1.3,2.1
					c-0.5-0.2-0.9-0.3-1.3-0.3c-0.8,0-1.6,0.3-2.4,1c-0.8,0.7-1.3,1.7-1.7,3.1c-0.3,1.1-0.5,3.3-0.5,6.6v6.4h-2.5V188.2z"/>
				<path class="st1" d="M243.9,188.2v19h-2.4V204c-1,1.2-2.2,2.2-3.4,2.8c-1.3,0.6-2.7,0.9-4.2,0.9c-2.7,0-5-1-6.9-2.9
					c-1.9-2-2.9-4.3-2.9-7.1c0-2.7,1-5.1,2.9-7c1.9-1.9,4.2-2.9,6.9-2.9c1.6,0,3,0.3,4.2,1c1.3,0.7,2.4,1.7,3.3,3v-3.5H243.9z
					 M234.1,190.1c-1.4,0-2.6,0.3-3.8,1c-1.1,0.7-2.1,1.6-2.7,2.8c-0.7,1.2-1,2.5-1,3.8c0,1.3,0.3,2.6,1,3.8
					c0.7,1.2,1.6,2.2,2.8,2.9c1.2,0.7,2.4,1,3.7,1c1.3,0,2.6-0.3,3.8-1c1.2-0.7,2.1-1.6,2.8-2.7c0.6-1.1,1-2.4,1-3.9
					c0-2.2-0.7-4-2.2-5.5C238,190.8,236.2,190.1,234.1,190.1z"/>
				<path class="st1" d="M250.8,180.9h2.4v26.3h-2.4V180.9z"/>
			</g>
			<g>
				<path class="st1" d="M262,183.4c0,0.9-0.3,1.6-0.9,2.2c-0.6,0.6-1.3,0.9-2.2,0.9c-0.9,0-1.6-0.3-2.2-0.9
					c-0.6-0.6-0.9-1.3-0.9-2.2c0-0.9,0.3-1.6,0.9-2.2c0.6-0.6,1.4-0.9,2.2-0.9c0.9,0,1.6,0.3,2.2,0.9
					C261.7,181.8,262,182.5,262,183.4z M261.7,183.4c0-0.8-0.3-1.4-0.8-2c-0.5-0.5-1.2-0.8-2-0.8c-0.8,0-1.4,0.3-2,0.8
					c-0.5,0.5-0.8,1.2-0.8,2s0.3,1.4,0.8,2c0.5,0.5,1.2,0.8,2,0.8c0.8,0,1.4-0.3,2-0.8C261.4,184.8,261.7,184.1,261.7,183.4z
					 M257.7,181.6h1.3c0.5,0,0.8,0.1,1,0.3c0.2,0.2,0.3,0.4,0.3,0.6c0,0.3-0.1,0.5-0.3,0.7c-0.2,0.1-0.4,0.2-0.7,0.3
					c0.1,0.1,0.2,0.1,0.3,0.2c0.1,0.1,0.1,0.2,0.3,0.3c0.1,0.2,0.2,0.3,0.3,0.4l0.3,0.6H260l-0.3-0.6c-0.3-0.4-0.4-0.7-0.6-0.8
					c-0.1-0.1-0.3-0.1-0.6-0.1h-0.3v1.5h-0.4V181.6z M258.2,181.9v1.2h0.4c0.5,0,0.8,0,0.9-0.1c0.1,0,0.2-0.1,0.3-0.2
					c0.1-0.1,0.1-0.2,0.1-0.3c0-0.2-0.1-0.3-0.2-0.4c-0.1-0.1-0.4-0.2-0.9-0.2H258.2z"/>
			</g>
			<polygon class="st2" points="5.4,184.4 -15.9,196.7 -37.1,184.4 -38,184.9 -38,185.9 -16.7,198.2 -16.7,222.8 -15.9,223.3 
				6.3,210.5 6.3,184.9 			"/>
			<polyline class="st3" points="-38,185.9 -38,210.5 -16.7,222.8 -16.7,198.2 -38,185.9 			"/>
		</g>
	</g>
	<polyline class="st4" points="-15.9,172.1 -37.1,184.4 -15.9,196.7 5.4,184.4 -15.9,172.1 	"/>
</g>
</svg>
